%TF.GenerationSoftware,KiCad,Pcbnew,8.0.3*%
%TF.CreationDate,2024-06-23T18:27:30+02:00*%
%TF.ProjectId,LS018B7DH02_breakout,4c533031-3842-4374-9448-30325f627265,rev?*%
%TF.SameCoordinates,Original*%
%TF.FileFunction,Drillmap*%
%TF.FilePolarity,Positive*%
%FSLAX45Y45*%
G04 Gerber Fmt 4.5, Leading zero omitted, Abs format (unit mm)*
G04 Created by KiCad (PCBNEW 8.0.3) date 2024-06-23 18:27:30*
%MOMM*%
%LPD*%
G01*
G04 APERTURE LIST*
%ADD10C,0.050000*%
%ADD11C,0.200000*%
%ADD12C,0.100000*%
G04 APERTURE END LIST*
D10*
X7400000Y-10550000D02*
G75*
G02*
X7150000Y-10300000I0J250000D01*
G01*
X7400000Y-8125000D02*
X11700000Y-8125000D01*
X11950000Y-8375000D02*
X11950000Y-10300000D01*
X7400000Y-10550000D02*
X11700000Y-10550000D01*
X11700000Y-8125000D02*
G75*
G02*
X11950000Y-8375000I0J-250000D01*
G01*
X11950000Y-10300000D02*
G75*
G02*
X11700000Y-10550000I-250000J0D01*
G01*
X7150000Y-10300000D02*
X7150000Y-8375000D01*
X7150000Y-8375000D02*
G75*
G02*
X7400000Y-8125000I250000J0D01*
G01*
D11*
D12*
X7436963Y-9498654D02*
X7466963Y-9528654D01*
X7466963Y-9498654D02*
X7436963Y-9528654D01*
X7710000Y-9485000D02*
X7740000Y-9515000D01*
X7740000Y-9485000D02*
X7710000Y-9515000D01*
X7810000Y-9210000D02*
X7840000Y-9240000D01*
X7840000Y-9210000D02*
X7810000Y-9240000D01*
X8142720Y-9642721D02*
X8172720Y-9672721D01*
X8172720Y-9642721D02*
X8142720Y-9672721D01*
X8185000Y-9085000D02*
X8215000Y-9115000D01*
X8215000Y-9085000D02*
X8185000Y-9115000D01*
X8435000Y-9160000D02*
X8465000Y-9190000D01*
X8465000Y-9160000D02*
X8435000Y-9190000D01*
X8510000Y-9585000D02*
X8540000Y-9615000D01*
X8540000Y-9585000D02*
X8510000Y-9615000D01*
X9210000Y-8635000D02*
X9240000Y-8665000D01*
X9240000Y-8635000D02*
X9210000Y-8665000D01*
X8825000Y-8525000D02*
G75*
G02*
X8725000Y-8525000I-50000J0D01*
G01*
X8725000Y-8525000D02*
G75*
G02*
X8825000Y-8525000I50000J0D01*
G01*
X8825000Y-8779000D02*
G75*
G02*
X8725000Y-8779000I-50000J0D01*
G01*
X8725000Y-8779000D02*
G75*
G02*
X8825000Y-8779000I50000J0D01*
G01*
X9000000Y-9600000D02*
G75*
G02*
X8900000Y-9600000I-50000J0D01*
G01*
X8900000Y-9600000D02*
G75*
G02*
X9000000Y-9600000I50000J0D01*
G01*
X9254000Y-9600000D02*
G75*
G02*
X9154000Y-9600000I-50000J0D01*
G01*
X9154000Y-9600000D02*
G75*
G02*
X9254000Y-9600000I50000J0D01*
G01*
X9508000Y-9600000D02*
G75*
G02*
X9408000Y-9600000I-50000J0D01*
G01*
X9408000Y-9600000D02*
G75*
G02*
X9508000Y-9600000I50000J0D01*
G01*
X9925000Y-8850000D02*
G75*
G02*
X9825000Y-8850000I-50000J0D01*
G01*
X9825000Y-8850000D02*
G75*
G02*
X9925000Y-8850000I50000J0D01*
G01*
X10000000Y-9598500D02*
G75*
G02*
X9900000Y-9598500I-50000J0D01*
G01*
X9900000Y-9598500D02*
G75*
G02*
X10000000Y-9598500I50000J0D01*
G01*
X10000000Y-9852500D02*
G75*
G02*
X9900000Y-9852500I-50000J0D01*
G01*
X9900000Y-9852500D02*
G75*
G02*
X10000000Y-9852500I50000J0D01*
G01*
X10179000Y-8850000D02*
G75*
G02*
X10079000Y-8850000I-50000J0D01*
G01*
X10079000Y-8850000D02*
G75*
G02*
X10179000Y-8850000I50000J0D01*
G01*
X11528951Y-8324596D02*
G75*
G02*
X11428951Y-8324596I-50000J0D01*
G01*
X11428951Y-8324596D02*
G75*
G02*
X11528951Y-8324596I50000J0D01*
G01*
X11528951Y-8578596D02*
G75*
G02*
X11428951Y-8578596I-50000J0D01*
G01*
X11428951Y-8578596D02*
G75*
G02*
X11528951Y-8578596I50000J0D01*
G01*
X11528951Y-8832596D02*
G75*
G02*
X11428951Y-8832596I-50000J0D01*
G01*
X11428951Y-8832596D02*
G75*
G02*
X11528951Y-8832596I50000J0D01*
G01*
X11528951Y-9086596D02*
G75*
G02*
X11428951Y-9086596I-50000J0D01*
G01*
X11428951Y-9086596D02*
G75*
G02*
X11528951Y-9086596I50000J0D01*
G01*
X11528951Y-9340596D02*
G75*
G02*
X11428951Y-9340596I-50000J0D01*
G01*
X11428951Y-9340596D02*
G75*
G02*
X11528951Y-9340596I50000J0D01*
G01*
X11528951Y-9594596D02*
G75*
G02*
X11428951Y-9594596I-50000J0D01*
G01*
X11428951Y-9594596D02*
G75*
G02*
X11528951Y-9594596I50000J0D01*
G01*
X11528951Y-9848596D02*
G75*
G02*
X11428951Y-9848596I-50000J0D01*
G01*
X11428951Y-9848596D02*
G75*
G02*
X11528951Y-9848596I50000J0D01*
G01*
X11528951Y-10102596D02*
G75*
G02*
X11428951Y-10102596I-50000J0D01*
G01*
X11428951Y-10102596D02*
G75*
G02*
X11528951Y-10102596I50000J0D01*
G01*
X11528951Y-10356596D02*
G75*
G02*
X11428951Y-10356596I-50000J0D01*
G01*
X11428951Y-10356596D02*
G75*
G02*
X11528951Y-10356596I50000J0D01*
G01*
D11*
X7408277Y-10863984D02*
X7408277Y-10663984D01*
X7408277Y-10663984D02*
X7455896Y-10663984D01*
X7455896Y-10663984D02*
X7484467Y-10673508D01*
X7484467Y-10673508D02*
X7503515Y-10692555D01*
X7503515Y-10692555D02*
X7513039Y-10711603D01*
X7513039Y-10711603D02*
X7522562Y-10749698D01*
X7522562Y-10749698D02*
X7522562Y-10778270D01*
X7522562Y-10778270D02*
X7513039Y-10816365D01*
X7513039Y-10816365D02*
X7503515Y-10835412D01*
X7503515Y-10835412D02*
X7484467Y-10854460D01*
X7484467Y-10854460D02*
X7455896Y-10863984D01*
X7455896Y-10863984D02*
X7408277Y-10863984D01*
X7608277Y-10863984D02*
X7608277Y-10730650D01*
X7608277Y-10768746D02*
X7617801Y-10749698D01*
X7617801Y-10749698D02*
X7627324Y-10740174D01*
X7627324Y-10740174D02*
X7646372Y-10730650D01*
X7646372Y-10730650D02*
X7665420Y-10730650D01*
X7732086Y-10863984D02*
X7732086Y-10730650D01*
X7732086Y-10663984D02*
X7722562Y-10673508D01*
X7722562Y-10673508D02*
X7732086Y-10683031D01*
X7732086Y-10683031D02*
X7741610Y-10673508D01*
X7741610Y-10673508D02*
X7732086Y-10663984D01*
X7732086Y-10663984D02*
X7732086Y-10683031D01*
X7855896Y-10863984D02*
X7836848Y-10854460D01*
X7836848Y-10854460D02*
X7827324Y-10835412D01*
X7827324Y-10835412D02*
X7827324Y-10663984D01*
X7960658Y-10863984D02*
X7941610Y-10854460D01*
X7941610Y-10854460D02*
X7932086Y-10835412D01*
X7932086Y-10835412D02*
X7932086Y-10663984D01*
X8189229Y-10863984D02*
X8189229Y-10663984D01*
X8189229Y-10663984D02*
X8255896Y-10806841D01*
X8255896Y-10806841D02*
X8322562Y-10663984D01*
X8322562Y-10663984D02*
X8322562Y-10863984D01*
X8503515Y-10863984D02*
X8503515Y-10759222D01*
X8503515Y-10759222D02*
X8493991Y-10740174D01*
X8493991Y-10740174D02*
X8474944Y-10730650D01*
X8474944Y-10730650D02*
X8436848Y-10730650D01*
X8436848Y-10730650D02*
X8417801Y-10740174D01*
X8503515Y-10854460D02*
X8484467Y-10863984D01*
X8484467Y-10863984D02*
X8436848Y-10863984D01*
X8436848Y-10863984D02*
X8417801Y-10854460D01*
X8417801Y-10854460D02*
X8408277Y-10835412D01*
X8408277Y-10835412D02*
X8408277Y-10816365D01*
X8408277Y-10816365D02*
X8417801Y-10797317D01*
X8417801Y-10797317D02*
X8436848Y-10787793D01*
X8436848Y-10787793D02*
X8484467Y-10787793D01*
X8484467Y-10787793D02*
X8503515Y-10778270D01*
X8598753Y-10730650D02*
X8598753Y-10930650D01*
X8598753Y-10740174D02*
X8617801Y-10730650D01*
X8617801Y-10730650D02*
X8655896Y-10730650D01*
X8655896Y-10730650D02*
X8674944Y-10740174D01*
X8674944Y-10740174D02*
X8684467Y-10749698D01*
X8684467Y-10749698D02*
X8693991Y-10768746D01*
X8693991Y-10768746D02*
X8693991Y-10825889D01*
X8693991Y-10825889D02*
X8684467Y-10844936D01*
X8684467Y-10844936D02*
X8674944Y-10854460D01*
X8674944Y-10854460D02*
X8655896Y-10863984D01*
X8655896Y-10863984D02*
X8617801Y-10863984D01*
X8617801Y-10863984D02*
X8598753Y-10854460D01*
X8779705Y-10844936D02*
X8789229Y-10854460D01*
X8789229Y-10854460D02*
X8779705Y-10863984D01*
X8779705Y-10863984D02*
X8770182Y-10854460D01*
X8770182Y-10854460D02*
X8779705Y-10844936D01*
X8779705Y-10844936D02*
X8779705Y-10863984D01*
X8779705Y-10740174D02*
X8789229Y-10749698D01*
X8789229Y-10749698D02*
X8779705Y-10759222D01*
X8779705Y-10759222D02*
X8770182Y-10749698D01*
X8770182Y-10749698D02*
X8779705Y-10740174D01*
X8779705Y-10740174D02*
X8779705Y-10759222D01*
D12*
X7117500Y-11177500D02*
X7147500Y-11207500D01*
X7147500Y-11177500D02*
X7117500Y-11207500D01*
D11*
X7446372Y-11083984D02*
X7465420Y-11083984D01*
X7465420Y-11083984D02*
X7484467Y-11093508D01*
X7484467Y-11093508D02*
X7493991Y-11103031D01*
X7493991Y-11103031D02*
X7503515Y-11122079D01*
X7503515Y-11122079D02*
X7513039Y-11160174D01*
X7513039Y-11160174D02*
X7513039Y-11207793D01*
X7513039Y-11207793D02*
X7503515Y-11245888D01*
X7503515Y-11245888D02*
X7493991Y-11264936D01*
X7493991Y-11264936D02*
X7484467Y-11274460D01*
X7484467Y-11274460D02*
X7465420Y-11283984D01*
X7465420Y-11283984D02*
X7446372Y-11283984D01*
X7446372Y-11283984D02*
X7427324Y-11274460D01*
X7427324Y-11274460D02*
X7417801Y-11264936D01*
X7417801Y-11264936D02*
X7408277Y-11245888D01*
X7408277Y-11245888D02*
X7398753Y-11207793D01*
X7398753Y-11207793D02*
X7398753Y-11160174D01*
X7398753Y-11160174D02*
X7408277Y-11122079D01*
X7408277Y-11122079D02*
X7417801Y-11103031D01*
X7417801Y-11103031D02*
X7427324Y-11093508D01*
X7427324Y-11093508D02*
X7446372Y-11083984D01*
X7598753Y-11264936D02*
X7608277Y-11274460D01*
X7608277Y-11274460D02*
X7598753Y-11283984D01*
X7598753Y-11283984D02*
X7589229Y-11274460D01*
X7589229Y-11274460D02*
X7598753Y-11264936D01*
X7598753Y-11264936D02*
X7598753Y-11283984D01*
X7674943Y-11083984D02*
X7798753Y-11083984D01*
X7798753Y-11083984D02*
X7732086Y-11160174D01*
X7732086Y-11160174D02*
X7760658Y-11160174D01*
X7760658Y-11160174D02*
X7779705Y-11169698D01*
X7779705Y-11169698D02*
X7789229Y-11179222D01*
X7789229Y-11179222D02*
X7798753Y-11198269D01*
X7798753Y-11198269D02*
X7798753Y-11245888D01*
X7798753Y-11245888D02*
X7789229Y-11264936D01*
X7789229Y-11264936D02*
X7779705Y-11274460D01*
X7779705Y-11274460D02*
X7760658Y-11283984D01*
X7760658Y-11283984D02*
X7703515Y-11283984D01*
X7703515Y-11283984D02*
X7684467Y-11274460D01*
X7684467Y-11274460D02*
X7674943Y-11264936D01*
X7922562Y-11083984D02*
X7941610Y-11083984D01*
X7941610Y-11083984D02*
X7960658Y-11093508D01*
X7960658Y-11093508D02*
X7970182Y-11103031D01*
X7970182Y-11103031D02*
X7979705Y-11122079D01*
X7979705Y-11122079D02*
X7989229Y-11160174D01*
X7989229Y-11160174D02*
X7989229Y-11207793D01*
X7989229Y-11207793D02*
X7979705Y-11245888D01*
X7979705Y-11245888D02*
X7970182Y-11264936D01*
X7970182Y-11264936D02*
X7960658Y-11274460D01*
X7960658Y-11274460D02*
X7941610Y-11283984D01*
X7941610Y-11283984D02*
X7922562Y-11283984D01*
X7922562Y-11283984D02*
X7903515Y-11274460D01*
X7903515Y-11274460D02*
X7893991Y-11264936D01*
X7893991Y-11264936D02*
X7884467Y-11245888D01*
X7884467Y-11245888D02*
X7874943Y-11207793D01*
X7874943Y-11207793D02*
X7874943Y-11160174D01*
X7874943Y-11160174D02*
X7884467Y-11122079D01*
X7884467Y-11122079D02*
X7893991Y-11103031D01*
X7893991Y-11103031D02*
X7903515Y-11093508D01*
X7903515Y-11093508D02*
X7922562Y-11083984D01*
X8113039Y-11083984D02*
X8132086Y-11083984D01*
X8132086Y-11083984D02*
X8151134Y-11093508D01*
X8151134Y-11093508D02*
X8160658Y-11103031D01*
X8160658Y-11103031D02*
X8170182Y-11122079D01*
X8170182Y-11122079D02*
X8179705Y-11160174D01*
X8179705Y-11160174D02*
X8179705Y-11207793D01*
X8179705Y-11207793D02*
X8170182Y-11245888D01*
X8170182Y-11245888D02*
X8160658Y-11264936D01*
X8160658Y-11264936D02*
X8151134Y-11274460D01*
X8151134Y-11274460D02*
X8132086Y-11283984D01*
X8132086Y-11283984D02*
X8113039Y-11283984D01*
X8113039Y-11283984D02*
X8093991Y-11274460D01*
X8093991Y-11274460D02*
X8084467Y-11264936D01*
X8084467Y-11264936D02*
X8074943Y-11245888D01*
X8074943Y-11245888D02*
X8065420Y-11207793D01*
X8065420Y-11207793D02*
X8065420Y-11160174D01*
X8065420Y-11160174D02*
X8074943Y-11122079D01*
X8074943Y-11122079D02*
X8084467Y-11103031D01*
X8084467Y-11103031D02*
X8093991Y-11093508D01*
X8093991Y-11093508D02*
X8113039Y-11083984D01*
X8265420Y-11283984D02*
X8265420Y-11150650D01*
X8265420Y-11169698D02*
X8274943Y-11160174D01*
X8274943Y-11160174D02*
X8293991Y-11150650D01*
X8293991Y-11150650D02*
X8322563Y-11150650D01*
X8322563Y-11150650D02*
X8341610Y-11160174D01*
X8341610Y-11160174D02*
X8351134Y-11179222D01*
X8351134Y-11179222D02*
X8351134Y-11283984D01*
X8351134Y-11179222D02*
X8360658Y-11160174D01*
X8360658Y-11160174D02*
X8379705Y-11150650D01*
X8379705Y-11150650D02*
X8408277Y-11150650D01*
X8408277Y-11150650D02*
X8427325Y-11160174D01*
X8427325Y-11160174D02*
X8436848Y-11179222D01*
X8436848Y-11179222D02*
X8436848Y-11283984D01*
X8532086Y-11283984D02*
X8532086Y-11150650D01*
X8532086Y-11169698D02*
X8541610Y-11160174D01*
X8541610Y-11160174D02*
X8560658Y-11150650D01*
X8560658Y-11150650D02*
X8589229Y-11150650D01*
X8589229Y-11150650D02*
X8608277Y-11160174D01*
X8608277Y-11160174D02*
X8617801Y-11179222D01*
X8617801Y-11179222D02*
X8617801Y-11283984D01*
X8617801Y-11179222D02*
X8627325Y-11160174D01*
X8627325Y-11160174D02*
X8646372Y-11150650D01*
X8646372Y-11150650D02*
X8674944Y-11150650D01*
X8674944Y-11150650D02*
X8693991Y-11160174D01*
X8693991Y-11160174D02*
X8703515Y-11179222D01*
X8703515Y-11179222D02*
X8703515Y-11283984D01*
X9093991Y-11074460D02*
X8922563Y-11331603D01*
X9351134Y-11083984D02*
X9370182Y-11083984D01*
X9370182Y-11083984D02*
X9389229Y-11093508D01*
X9389229Y-11093508D02*
X9398753Y-11103031D01*
X9398753Y-11103031D02*
X9408277Y-11122079D01*
X9408277Y-11122079D02*
X9417801Y-11160174D01*
X9417801Y-11160174D02*
X9417801Y-11207793D01*
X9417801Y-11207793D02*
X9408277Y-11245888D01*
X9408277Y-11245888D02*
X9398753Y-11264936D01*
X9398753Y-11264936D02*
X9389229Y-11274460D01*
X9389229Y-11274460D02*
X9370182Y-11283984D01*
X9370182Y-11283984D02*
X9351134Y-11283984D01*
X9351134Y-11283984D02*
X9332087Y-11274460D01*
X9332087Y-11274460D02*
X9322563Y-11264936D01*
X9322563Y-11264936D02*
X9313039Y-11245888D01*
X9313039Y-11245888D02*
X9303515Y-11207793D01*
X9303515Y-11207793D02*
X9303515Y-11160174D01*
X9303515Y-11160174D02*
X9313039Y-11122079D01*
X9313039Y-11122079D02*
X9322563Y-11103031D01*
X9322563Y-11103031D02*
X9332087Y-11093508D01*
X9332087Y-11093508D02*
X9351134Y-11083984D01*
X9503515Y-11264936D02*
X9513039Y-11274460D01*
X9513039Y-11274460D02*
X9503515Y-11283984D01*
X9503515Y-11283984D02*
X9493991Y-11274460D01*
X9493991Y-11274460D02*
X9503515Y-11264936D01*
X9503515Y-11264936D02*
X9503515Y-11283984D01*
X9636848Y-11083984D02*
X9655896Y-11083984D01*
X9655896Y-11083984D02*
X9674944Y-11093508D01*
X9674944Y-11093508D02*
X9684468Y-11103031D01*
X9684468Y-11103031D02*
X9693991Y-11122079D01*
X9693991Y-11122079D02*
X9703515Y-11160174D01*
X9703515Y-11160174D02*
X9703515Y-11207793D01*
X9703515Y-11207793D02*
X9693991Y-11245888D01*
X9693991Y-11245888D02*
X9684468Y-11264936D01*
X9684468Y-11264936D02*
X9674944Y-11274460D01*
X9674944Y-11274460D02*
X9655896Y-11283984D01*
X9655896Y-11283984D02*
X9636848Y-11283984D01*
X9636848Y-11283984D02*
X9617801Y-11274460D01*
X9617801Y-11274460D02*
X9608277Y-11264936D01*
X9608277Y-11264936D02*
X9598753Y-11245888D01*
X9598753Y-11245888D02*
X9589229Y-11207793D01*
X9589229Y-11207793D02*
X9589229Y-11160174D01*
X9589229Y-11160174D02*
X9598753Y-11122079D01*
X9598753Y-11122079D02*
X9608277Y-11103031D01*
X9608277Y-11103031D02*
X9617801Y-11093508D01*
X9617801Y-11093508D02*
X9636848Y-11083984D01*
X9893991Y-11283984D02*
X9779706Y-11283984D01*
X9836848Y-11283984D02*
X9836848Y-11083984D01*
X9836848Y-11083984D02*
X9817801Y-11112555D01*
X9817801Y-11112555D02*
X9798753Y-11131603D01*
X9798753Y-11131603D02*
X9779706Y-11141127D01*
X10084468Y-11283984D02*
X9970182Y-11283984D01*
X10027325Y-11283984D02*
X10027325Y-11083984D01*
X10027325Y-11083984D02*
X10008277Y-11112555D01*
X10008277Y-11112555D02*
X9989229Y-11131603D01*
X9989229Y-11131603D02*
X9970182Y-11141127D01*
X10198753Y-11169698D02*
X10179706Y-11160174D01*
X10179706Y-11160174D02*
X10170182Y-11150650D01*
X10170182Y-11150650D02*
X10160658Y-11131603D01*
X10160658Y-11131603D02*
X10160658Y-11122079D01*
X10160658Y-11122079D02*
X10170182Y-11103031D01*
X10170182Y-11103031D02*
X10179706Y-11093508D01*
X10179706Y-11093508D02*
X10198753Y-11083984D01*
X10198753Y-11083984D02*
X10236849Y-11083984D01*
X10236849Y-11083984D02*
X10255896Y-11093508D01*
X10255896Y-11093508D02*
X10265420Y-11103031D01*
X10265420Y-11103031D02*
X10274944Y-11122079D01*
X10274944Y-11122079D02*
X10274944Y-11131603D01*
X10274944Y-11131603D02*
X10265420Y-11150650D01*
X10265420Y-11150650D02*
X10255896Y-11160174D01*
X10255896Y-11160174D02*
X10236849Y-11169698D01*
X10236849Y-11169698D02*
X10198753Y-11169698D01*
X10198753Y-11169698D02*
X10179706Y-11179222D01*
X10179706Y-11179222D02*
X10170182Y-11188746D01*
X10170182Y-11188746D02*
X10160658Y-11207793D01*
X10160658Y-11207793D02*
X10160658Y-11245888D01*
X10160658Y-11245888D02*
X10170182Y-11264936D01*
X10170182Y-11264936D02*
X10179706Y-11274460D01*
X10179706Y-11274460D02*
X10198753Y-11283984D01*
X10198753Y-11283984D02*
X10236849Y-11283984D01*
X10236849Y-11283984D02*
X10255896Y-11274460D01*
X10255896Y-11274460D02*
X10265420Y-11264936D01*
X10265420Y-11264936D02*
X10274944Y-11245888D01*
X10274944Y-11245888D02*
X10274944Y-11207793D01*
X10274944Y-11207793D02*
X10265420Y-11188746D01*
X10265420Y-11188746D02*
X10255896Y-11179222D01*
X10255896Y-11179222D02*
X10236849Y-11169698D01*
X10351134Y-11083984D02*
X10351134Y-11122079D01*
X10427325Y-11083984D02*
X10427325Y-11122079D01*
X10722563Y-11360174D02*
X10713039Y-11350650D01*
X10713039Y-11350650D02*
X10693991Y-11322079D01*
X10693991Y-11322079D02*
X10684468Y-11303031D01*
X10684468Y-11303031D02*
X10674944Y-11274460D01*
X10674944Y-11274460D02*
X10665420Y-11226841D01*
X10665420Y-11226841D02*
X10665420Y-11188746D01*
X10665420Y-11188746D02*
X10674944Y-11141127D01*
X10674944Y-11141127D02*
X10684468Y-11112555D01*
X10684468Y-11112555D02*
X10693991Y-11093508D01*
X10693991Y-11093508D02*
X10713039Y-11064936D01*
X10713039Y-11064936D02*
X10722563Y-11055412D01*
X10827325Y-11169698D02*
X10808277Y-11160174D01*
X10808277Y-11160174D02*
X10798753Y-11150650D01*
X10798753Y-11150650D02*
X10789230Y-11131603D01*
X10789230Y-11131603D02*
X10789230Y-11122079D01*
X10789230Y-11122079D02*
X10798753Y-11103031D01*
X10798753Y-11103031D02*
X10808277Y-11093508D01*
X10808277Y-11093508D02*
X10827325Y-11083984D01*
X10827325Y-11083984D02*
X10865420Y-11083984D01*
X10865420Y-11083984D02*
X10884468Y-11093508D01*
X10884468Y-11093508D02*
X10893991Y-11103031D01*
X10893991Y-11103031D02*
X10903515Y-11122079D01*
X10903515Y-11122079D02*
X10903515Y-11131603D01*
X10903515Y-11131603D02*
X10893991Y-11150650D01*
X10893991Y-11150650D02*
X10884468Y-11160174D01*
X10884468Y-11160174D02*
X10865420Y-11169698D01*
X10865420Y-11169698D02*
X10827325Y-11169698D01*
X10827325Y-11169698D02*
X10808277Y-11179222D01*
X10808277Y-11179222D02*
X10798753Y-11188746D01*
X10798753Y-11188746D02*
X10789230Y-11207793D01*
X10789230Y-11207793D02*
X10789230Y-11245888D01*
X10789230Y-11245888D02*
X10798753Y-11264936D01*
X10798753Y-11264936D02*
X10808277Y-11274460D01*
X10808277Y-11274460D02*
X10827325Y-11283984D01*
X10827325Y-11283984D02*
X10865420Y-11283984D01*
X10865420Y-11283984D02*
X10884468Y-11274460D01*
X10884468Y-11274460D02*
X10893991Y-11264936D01*
X10893991Y-11264936D02*
X10903515Y-11245888D01*
X10903515Y-11245888D02*
X10903515Y-11207793D01*
X10903515Y-11207793D02*
X10893991Y-11188746D01*
X10893991Y-11188746D02*
X10884468Y-11179222D01*
X10884468Y-11179222D02*
X10865420Y-11169698D01*
X11141611Y-11283984D02*
X11141611Y-11083984D01*
X11227325Y-11283984D02*
X11227325Y-11179222D01*
X11227325Y-11179222D02*
X11217801Y-11160174D01*
X11217801Y-11160174D02*
X11198753Y-11150650D01*
X11198753Y-11150650D02*
X11170182Y-11150650D01*
X11170182Y-11150650D02*
X11151134Y-11160174D01*
X11151134Y-11160174D02*
X11141611Y-11169698D01*
X11351134Y-11283984D02*
X11332087Y-11274460D01*
X11332087Y-11274460D02*
X11322563Y-11264936D01*
X11322563Y-11264936D02*
X11313039Y-11245888D01*
X11313039Y-11245888D02*
X11313039Y-11188746D01*
X11313039Y-11188746D02*
X11322563Y-11169698D01*
X11322563Y-11169698D02*
X11332087Y-11160174D01*
X11332087Y-11160174D02*
X11351134Y-11150650D01*
X11351134Y-11150650D02*
X11379706Y-11150650D01*
X11379706Y-11150650D02*
X11398753Y-11160174D01*
X11398753Y-11160174D02*
X11408277Y-11169698D01*
X11408277Y-11169698D02*
X11417801Y-11188746D01*
X11417801Y-11188746D02*
X11417801Y-11245888D01*
X11417801Y-11245888D02*
X11408277Y-11264936D01*
X11408277Y-11264936D02*
X11398753Y-11274460D01*
X11398753Y-11274460D02*
X11379706Y-11283984D01*
X11379706Y-11283984D02*
X11351134Y-11283984D01*
X11532087Y-11283984D02*
X11513039Y-11274460D01*
X11513039Y-11274460D02*
X11503515Y-11255412D01*
X11503515Y-11255412D02*
X11503515Y-11083984D01*
X11684468Y-11274460D02*
X11665420Y-11283984D01*
X11665420Y-11283984D02*
X11627325Y-11283984D01*
X11627325Y-11283984D02*
X11608277Y-11274460D01*
X11608277Y-11274460D02*
X11598753Y-11255412D01*
X11598753Y-11255412D02*
X11598753Y-11179222D01*
X11598753Y-11179222D02*
X11608277Y-11160174D01*
X11608277Y-11160174D02*
X11627325Y-11150650D01*
X11627325Y-11150650D02*
X11665420Y-11150650D01*
X11665420Y-11150650D02*
X11684468Y-11160174D01*
X11684468Y-11160174D02*
X11693991Y-11179222D01*
X11693991Y-11179222D02*
X11693991Y-11198269D01*
X11693991Y-11198269D02*
X11598753Y-11217317D01*
X11770182Y-11274460D02*
X11789230Y-11283984D01*
X11789230Y-11283984D02*
X11827325Y-11283984D01*
X11827325Y-11283984D02*
X11846372Y-11274460D01*
X11846372Y-11274460D02*
X11855896Y-11255412D01*
X11855896Y-11255412D02*
X11855896Y-11245888D01*
X11855896Y-11245888D02*
X11846372Y-11226841D01*
X11846372Y-11226841D02*
X11827325Y-11217317D01*
X11827325Y-11217317D02*
X11798753Y-11217317D01*
X11798753Y-11217317D02*
X11779706Y-11207793D01*
X11779706Y-11207793D02*
X11770182Y-11188746D01*
X11770182Y-11188746D02*
X11770182Y-11179222D01*
X11770182Y-11179222D02*
X11779706Y-11160174D01*
X11779706Y-11160174D02*
X11798753Y-11150650D01*
X11798753Y-11150650D02*
X11827325Y-11150650D01*
X11827325Y-11150650D02*
X11846372Y-11160174D01*
X11922563Y-11360174D02*
X11932087Y-11350650D01*
X11932087Y-11350650D02*
X11951134Y-11322079D01*
X11951134Y-11322079D02*
X11960658Y-11303031D01*
X11960658Y-11303031D02*
X11970182Y-11274460D01*
X11970182Y-11274460D02*
X11979706Y-11226841D01*
X11979706Y-11226841D02*
X11979706Y-11188746D01*
X11979706Y-11188746D02*
X11970182Y-11141127D01*
X11970182Y-11141127D02*
X11960658Y-11112555D01*
X11960658Y-11112555D02*
X11951134Y-11093508D01*
X11951134Y-11093508D02*
X11932087Y-11064936D01*
X11932087Y-11064936D02*
X11922563Y-11055412D01*
D12*
X7147500Y-11456500D02*
G75*
G02*
X7047500Y-11456500I-50000J0D01*
G01*
X7047500Y-11456500D02*
G75*
G02*
X7147500Y-11456500I50000J0D01*
G01*
D11*
X7513039Y-11547984D02*
X7398753Y-11547984D01*
X7455896Y-11547984D02*
X7455896Y-11347984D01*
X7455896Y-11347984D02*
X7436848Y-11376555D01*
X7436848Y-11376555D02*
X7417801Y-11395603D01*
X7417801Y-11395603D02*
X7398753Y-11405127D01*
X7598753Y-11528936D02*
X7608277Y-11538460D01*
X7608277Y-11538460D02*
X7598753Y-11547984D01*
X7598753Y-11547984D02*
X7589229Y-11538460D01*
X7589229Y-11538460D02*
X7598753Y-11528936D01*
X7598753Y-11528936D02*
X7598753Y-11547984D01*
X7732086Y-11347984D02*
X7751134Y-11347984D01*
X7751134Y-11347984D02*
X7770182Y-11357508D01*
X7770182Y-11357508D02*
X7779705Y-11367031D01*
X7779705Y-11367031D02*
X7789229Y-11386079D01*
X7789229Y-11386079D02*
X7798753Y-11424174D01*
X7798753Y-11424174D02*
X7798753Y-11471793D01*
X7798753Y-11471793D02*
X7789229Y-11509888D01*
X7789229Y-11509888D02*
X7779705Y-11528936D01*
X7779705Y-11528936D02*
X7770182Y-11538460D01*
X7770182Y-11538460D02*
X7751134Y-11547984D01*
X7751134Y-11547984D02*
X7732086Y-11547984D01*
X7732086Y-11547984D02*
X7713039Y-11538460D01*
X7713039Y-11538460D02*
X7703515Y-11528936D01*
X7703515Y-11528936D02*
X7693991Y-11509888D01*
X7693991Y-11509888D02*
X7684467Y-11471793D01*
X7684467Y-11471793D02*
X7684467Y-11424174D01*
X7684467Y-11424174D02*
X7693991Y-11386079D01*
X7693991Y-11386079D02*
X7703515Y-11367031D01*
X7703515Y-11367031D02*
X7713039Y-11357508D01*
X7713039Y-11357508D02*
X7732086Y-11347984D01*
X7922562Y-11347984D02*
X7941610Y-11347984D01*
X7941610Y-11347984D02*
X7960658Y-11357508D01*
X7960658Y-11357508D02*
X7970182Y-11367031D01*
X7970182Y-11367031D02*
X7979705Y-11386079D01*
X7979705Y-11386079D02*
X7989229Y-11424174D01*
X7989229Y-11424174D02*
X7989229Y-11471793D01*
X7989229Y-11471793D02*
X7979705Y-11509888D01*
X7979705Y-11509888D02*
X7970182Y-11528936D01*
X7970182Y-11528936D02*
X7960658Y-11538460D01*
X7960658Y-11538460D02*
X7941610Y-11547984D01*
X7941610Y-11547984D02*
X7922562Y-11547984D01*
X7922562Y-11547984D02*
X7903515Y-11538460D01*
X7903515Y-11538460D02*
X7893991Y-11528936D01*
X7893991Y-11528936D02*
X7884467Y-11509888D01*
X7884467Y-11509888D02*
X7874943Y-11471793D01*
X7874943Y-11471793D02*
X7874943Y-11424174D01*
X7874943Y-11424174D02*
X7884467Y-11386079D01*
X7884467Y-11386079D02*
X7893991Y-11367031D01*
X7893991Y-11367031D02*
X7903515Y-11357508D01*
X7903515Y-11357508D02*
X7922562Y-11347984D01*
X8113039Y-11347984D02*
X8132086Y-11347984D01*
X8132086Y-11347984D02*
X8151134Y-11357508D01*
X8151134Y-11357508D02*
X8160658Y-11367031D01*
X8160658Y-11367031D02*
X8170182Y-11386079D01*
X8170182Y-11386079D02*
X8179705Y-11424174D01*
X8179705Y-11424174D02*
X8179705Y-11471793D01*
X8179705Y-11471793D02*
X8170182Y-11509888D01*
X8170182Y-11509888D02*
X8160658Y-11528936D01*
X8160658Y-11528936D02*
X8151134Y-11538460D01*
X8151134Y-11538460D02*
X8132086Y-11547984D01*
X8132086Y-11547984D02*
X8113039Y-11547984D01*
X8113039Y-11547984D02*
X8093991Y-11538460D01*
X8093991Y-11538460D02*
X8084467Y-11528936D01*
X8084467Y-11528936D02*
X8074943Y-11509888D01*
X8074943Y-11509888D02*
X8065420Y-11471793D01*
X8065420Y-11471793D02*
X8065420Y-11424174D01*
X8065420Y-11424174D02*
X8074943Y-11386079D01*
X8074943Y-11386079D02*
X8084467Y-11367031D01*
X8084467Y-11367031D02*
X8093991Y-11357508D01*
X8093991Y-11357508D02*
X8113039Y-11347984D01*
X8265420Y-11547984D02*
X8265420Y-11414650D01*
X8265420Y-11433698D02*
X8274943Y-11424174D01*
X8274943Y-11424174D02*
X8293991Y-11414650D01*
X8293991Y-11414650D02*
X8322563Y-11414650D01*
X8322563Y-11414650D02*
X8341610Y-11424174D01*
X8341610Y-11424174D02*
X8351134Y-11443222D01*
X8351134Y-11443222D02*
X8351134Y-11547984D01*
X8351134Y-11443222D02*
X8360658Y-11424174D01*
X8360658Y-11424174D02*
X8379705Y-11414650D01*
X8379705Y-11414650D02*
X8408277Y-11414650D01*
X8408277Y-11414650D02*
X8427325Y-11424174D01*
X8427325Y-11424174D02*
X8436848Y-11443222D01*
X8436848Y-11443222D02*
X8436848Y-11547984D01*
X8532086Y-11547984D02*
X8532086Y-11414650D01*
X8532086Y-11433698D02*
X8541610Y-11424174D01*
X8541610Y-11424174D02*
X8560658Y-11414650D01*
X8560658Y-11414650D02*
X8589229Y-11414650D01*
X8589229Y-11414650D02*
X8608277Y-11424174D01*
X8608277Y-11424174D02*
X8617801Y-11443222D01*
X8617801Y-11443222D02*
X8617801Y-11547984D01*
X8617801Y-11443222D02*
X8627325Y-11424174D01*
X8627325Y-11424174D02*
X8646372Y-11414650D01*
X8646372Y-11414650D02*
X8674944Y-11414650D01*
X8674944Y-11414650D02*
X8693991Y-11424174D01*
X8693991Y-11424174D02*
X8703515Y-11443222D01*
X8703515Y-11443222D02*
X8703515Y-11547984D01*
X9093991Y-11338460D02*
X8922563Y-11595603D01*
X9351134Y-11347984D02*
X9370182Y-11347984D01*
X9370182Y-11347984D02*
X9389229Y-11357508D01*
X9389229Y-11357508D02*
X9398753Y-11367031D01*
X9398753Y-11367031D02*
X9408277Y-11386079D01*
X9408277Y-11386079D02*
X9417801Y-11424174D01*
X9417801Y-11424174D02*
X9417801Y-11471793D01*
X9417801Y-11471793D02*
X9408277Y-11509888D01*
X9408277Y-11509888D02*
X9398753Y-11528936D01*
X9398753Y-11528936D02*
X9389229Y-11538460D01*
X9389229Y-11538460D02*
X9370182Y-11547984D01*
X9370182Y-11547984D02*
X9351134Y-11547984D01*
X9351134Y-11547984D02*
X9332087Y-11538460D01*
X9332087Y-11538460D02*
X9322563Y-11528936D01*
X9322563Y-11528936D02*
X9313039Y-11509888D01*
X9313039Y-11509888D02*
X9303515Y-11471793D01*
X9303515Y-11471793D02*
X9303515Y-11424174D01*
X9303515Y-11424174D02*
X9313039Y-11386079D01*
X9313039Y-11386079D02*
X9322563Y-11367031D01*
X9322563Y-11367031D02*
X9332087Y-11357508D01*
X9332087Y-11357508D02*
X9351134Y-11347984D01*
X9503515Y-11528936D02*
X9513039Y-11538460D01*
X9513039Y-11538460D02*
X9503515Y-11547984D01*
X9503515Y-11547984D02*
X9493991Y-11538460D01*
X9493991Y-11538460D02*
X9503515Y-11528936D01*
X9503515Y-11528936D02*
X9503515Y-11547984D01*
X9636848Y-11347984D02*
X9655896Y-11347984D01*
X9655896Y-11347984D02*
X9674944Y-11357508D01*
X9674944Y-11357508D02*
X9684468Y-11367031D01*
X9684468Y-11367031D02*
X9693991Y-11386079D01*
X9693991Y-11386079D02*
X9703515Y-11424174D01*
X9703515Y-11424174D02*
X9703515Y-11471793D01*
X9703515Y-11471793D02*
X9693991Y-11509888D01*
X9693991Y-11509888D02*
X9684468Y-11528936D01*
X9684468Y-11528936D02*
X9674944Y-11538460D01*
X9674944Y-11538460D02*
X9655896Y-11547984D01*
X9655896Y-11547984D02*
X9636848Y-11547984D01*
X9636848Y-11547984D02*
X9617801Y-11538460D01*
X9617801Y-11538460D02*
X9608277Y-11528936D01*
X9608277Y-11528936D02*
X9598753Y-11509888D01*
X9598753Y-11509888D02*
X9589229Y-11471793D01*
X9589229Y-11471793D02*
X9589229Y-11424174D01*
X9589229Y-11424174D02*
X9598753Y-11386079D01*
X9598753Y-11386079D02*
X9608277Y-11367031D01*
X9608277Y-11367031D02*
X9617801Y-11357508D01*
X9617801Y-11357508D02*
X9636848Y-11347984D01*
X9770182Y-11347984D02*
X9893991Y-11347984D01*
X9893991Y-11347984D02*
X9827325Y-11424174D01*
X9827325Y-11424174D02*
X9855896Y-11424174D01*
X9855896Y-11424174D02*
X9874944Y-11433698D01*
X9874944Y-11433698D02*
X9884468Y-11443222D01*
X9884468Y-11443222D02*
X9893991Y-11462269D01*
X9893991Y-11462269D02*
X9893991Y-11509888D01*
X9893991Y-11509888D02*
X9884468Y-11528936D01*
X9884468Y-11528936D02*
X9874944Y-11538460D01*
X9874944Y-11538460D02*
X9855896Y-11547984D01*
X9855896Y-11547984D02*
X9798753Y-11547984D01*
X9798753Y-11547984D02*
X9779706Y-11538460D01*
X9779706Y-11538460D02*
X9770182Y-11528936D01*
X9989229Y-11547984D02*
X10027325Y-11547984D01*
X10027325Y-11547984D02*
X10046372Y-11538460D01*
X10046372Y-11538460D02*
X10055896Y-11528936D01*
X10055896Y-11528936D02*
X10074944Y-11500365D01*
X10074944Y-11500365D02*
X10084468Y-11462269D01*
X10084468Y-11462269D02*
X10084468Y-11386079D01*
X10084468Y-11386079D02*
X10074944Y-11367031D01*
X10074944Y-11367031D02*
X10065420Y-11357508D01*
X10065420Y-11357508D02*
X10046372Y-11347984D01*
X10046372Y-11347984D02*
X10008277Y-11347984D01*
X10008277Y-11347984D02*
X9989229Y-11357508D01*
X9989229Y-11357508D02*
X9979706Y-11367031D01*
X9979706Y-11367031D02*
X9970182Y-11386079D01*
X9970182Y-11386079D02*
X9970182Y-11433698D01*
X9970182Y-11433698D02*
X9979706Y-11452746D01*
X9979706Y-11452746D02*
X9989229Y-11462269D01*
X9989229Y-11462269D02*
X10008277Y-11471793D01*
X10008277Y-11471793D02*
X10046372Y-11471793D01*
X10046372Y-11471793D02*
X10065420Y-11462269D01*
X10065420Y-11462269D02*
X10074944Y-11452746D01*
X10074944Y-11452746D02*
X10084468Y-11433698D01*
X10255896Y-11414650D02*
X10255896Y-11547984D01*
X10208277Y-11338460D02*
X10160658Y-11481317D01*
X10160658Y-11481317D02*
X10284468Y-11481317D01*
X10351134Y-11347984D02*
X10351134Y-11386079D01*
X10427325Y-11347984D02*
X10427325Y-11386079D01*
X10722563Y-11624174D02*
X10713039Y-11614650D01*
X10713039Y-11614650D02*
X10693991Y-11586079D01*
X10693991Y-11586079D02*
X10684468Y-11567031D01*
X10684468Y-11567031D02*
X10674944Y-11538460D01*
X10674944Y-11538460D02*
X10665420Y-11490841D01*
X10665420Y-11490841D02*
X10665420Y-11452746D01*
X10665420Y-11452746D02*
X10674944Y-11405127D01*
X10674944Y-11405127D02*
X10684468Y-11376555D01*
X10684468Y-11376555D02*
X10693991Y-11357508D01*
X10693991Y-11357508D02*
X10713039Y-11328936D01*
X10713039Y-11328936D02*
X10722563Y-11319412D01*
X10903515Y-11547984D02*
X10789230Y-11547984D01*
X10846372Y-11547984D02*
X10846372Y-11347984D01*
X10846372Y-11347984D02*
X10827325Y-11376555D01*
X10827325Y-11376555D02*
X10808277Y-11395603D01*
X10808277Y-11395603D02*
X10789230Y-11405127D01*
X11017801Y-11433698D02*
X10998753Y-11424174D01*
X10998753Y-11424174D02*
X10989230Y-11414650D01*
X10989230Y-11414650D02*
X10979706Y-11395603D01*
X10979706Y-11395603D02*
X10979706Y-11386079D01*
X10979706Y-11386079D02*
X10989230Y-11367031D01*
X10989230Y-11367031D02*
X10998753Y-11357508D01*
X10998753Y-11357508D02*
X11017801Y-11347984D01*
X11017801Y-11347984D02*
X11055896Y-11347984D01*
X11055896Y-11347984D02*
X11074944Y-11357508D01*
X11074944Y-11357508D02*
X11084468Y-11367031D01*
X11084468Y-11367031D02*
X11093991Y-11386079D01*
X11093991Y-11386079D02*
X11093991Y-11395603D01*
X11093991Y-11395603D02*
X11084468Y-11414650D01*
X11084468Y-11414650D02*
X11074944Y-11424174D01*
X11074944Y-11424174D02*
X11055896Y-11433698D01*
X11055896Y-11433698D02*
X11017801Y-11433698D01*
X11017801Y-11433698D02*
X10998753Y-11443222D01*
X10998753Y-11443222D02*
X10989230Y-11452746D01*
X10989230Y-11452746D02*
X10979706Y-11471793D01*
X10979706Y-11471793D02*
X10979706Y-11509888D01*
X10979706Y-11509888D02*
X10989230Y-11528936D01*
X10989230Y-11528936D02*
X10998753Y-11538460D01*
X10998753Y-11538460D02*
X11017801Y-11547984D01*
X11017801Y-11547984D02*
X11055896Y-11547984D01*
X11055896Y-11547984D02*
X11074944Y-11538460D01*
X11074944Y-11538460D02*
X11084468Y-11528936D01*
X11084468Y-11528936D02*
X11093991Y-11509888D01*
X11093991Y-11509888D02*
X11093991Y-11471793D01*
X11093991Y-11471793D02*
X11084468Y-11452746D01*
X11084468Y-11452746D02*
X11074944Y-11443222D01*
X11074944Y-11443222D02*
X11055896Y-11433698D01*
X11332087Y-11547984D02*
X11332087Y-11347984D01*
X11417801Y-11547984D02*
X11417801Y-11443222D01*
X11417801Y-11443222D02*
X11408277Y-11424174D01*
X11408277Y-11424174D02*
X11389230Y-11414650D01*
X11389230Y-11414650D02*
X11360658Y-11414650D01*
X11360658Y-11414650D02*
X11341610Y-11424174D01*
X11341610Y-11424174D02*
X11332087Y-11433698D01*
X11541610Y-11547984D02*
X11522563Y-11538460D01*
X11522563Y-11538460D02*
X11513039Y-11528936D01*
X11513039Y-11528936D02*
X11503515Y-11509888D01*
X11503515Y-11509888D02*
X11503515Y-11452746D01*
X11503515Y-11452746D02*
X11513039Y-11433698D01*
X11513039Y-11433698D02*
X11522563Y-11424174D01*
X11522563Y-11424174D02*
X11541610Y-11414650D01*
X11541610Y-11414650D02*
X11570182Y-11414650D01*
X11570182Y-11414650D02*
X11589230Y-11424174D01*
X11589230Y-11424174D02*
X11598753Y-11433698D01*
X11598753Y-11433698D02*
X11608277Y-11452746D01*
X11608277Y-11452746D02*
X11608277Y-11509888D01*
X11608277Y-11509888D02*
X11598753Y-11528936D01*
X11598753Y-11528936D02*
X11589230Y-11538460D01*
X11589230Y-11538460D02*
X11570182Y-11547984D01*
X11570182Y-11547984D02*
X11541610Y-11547984D01*
X11722563Y-11547984D02*
X11703515Y-11538460D01*
X11703515Y-11538460D02*
X11693991Y-11519412D01*
X11693991Y-11519412D02*
X11693991Y-11347984D01*
X11874944Y-11538460D02*
X11855896Y-11547984D01*
X11855896Y-11547984D02*
X11817801Y-11547984D01*
X11817801Y-11547984D02*
X11798753Y-11538460D01*
X11798753Y-11538460D02*
X11789230Y-11519412D01*
X11789230Y-11519412D02*
X11789230Y-11443222D01*
X11789230Y-11443222D02*
X11798753Y-11424174D01*
X11798753Y-11424174D02*
X11817801Y-11414650D01*
X11817801Y-11414650D02*
X11855896Y-11414650D01*
X11855896Y-11414650D02*
X11874944Y-11424174D01*
X11874944Y-11424174D02*
X11884468Y-11443222D01*
X11884468Y-11443222D02*
X11884468Y-11462269D01*
X11884468Y-11462269D02*
X11789230Y-11481317D01*
X11960658Y-11538460D02*
X11979706Y-11547984D01*
X11979706Y-11547984D02*
X12017801Y-11547984D01*
X12017801Y-11547984D02*
X12036849Y-11538460D01*
X12036849Y-11538460D02*
X12046372Y-11519412D01*
X12046372Y-11519412D02*
X12046372Y-11509888D01*
X12046372Y-11509888D02*
X12036849Y-11490841D01*
X12036849Y-11490841D02*
X12017801Y-11481317D01*
X12017801Y-11481317D02*
X11989230Y-11481317D01*
X11989230Y-11481317D02*
X11970182Y-11471793D01*
X11970182Y-11471793D02*
X11960658Y-11452746D01*
X11960658Y-11452746D02*
X11960658Y-11443222D01*
X11960658Y-11443222D02*
X11970182Y-11424174D01*
X11970182Y-11424174D02*
X11989230Y-11414650D01*
X11989230Y-11414650D02*
X12017801Y-11414650D01*
X12017801Y-11414650D02*
X12036849Y-11424174D01*
X12113039Y-11624174D02*
X12122563Y-11614650D01*
X12122563Y-11614650D02*
X12141611Y-11586079D01*
X12141611Y-11586079D02*
X12151134Y-11567031D01*
X12151134Y-11567031D02*
X12160658Y-11538460D01*
X12160658Y-11538460D02*
X12170182Y-11490841D01*
X12170182Y-11490841D02*
X12170182Y-11452746D01*
X12170182Y-11452746D02*
X12160658Y-11405127D01*
X12160658Y-11405127D02*
X12151134Y-11376555D01*
X12151134Y-11376555D02*
X12141611Y-11357508D01*
X12141611Y-11357508D02*
X12122563Y-11328936D01*
X12122563Y-11328936D02*
X12113039Y-11319412D01*
M02*
