%TF.GenerationSoftware,KiCad,Pcbnew,8.0.3*%
%TF.CreationDate,2024-06-23T18:27:21+02:00*%
%TF.ProjectId,LS018B7DH02_breakout,4c533031-3842-4374-9448-30325f627265,rev?*%
%TF.SameCoordinates,Original*%
%TF.FileFunction,Copper,L1,Top*%
%TF.FilePolarity,Positive*%
%FSLAX46Y46*%
G04 Gerber Fmt 4.6, Leading zero omitted, Abs format (unit mm)*
G04 Created by KiCad (PCBNEW 8.0.3) date 2024-06-23 18:27:21*
%MOMM*%
%LPD*%
G01*
G04 APERTURE LIST*
G04 Aperture macros list*
%AMRoundRect*
0 Rectangle with rounded corners*
0 $1 Rounding radius*
0 $2 $3 $4 $5 $6 $7 $8 $9 X,Y pos of 4 corners*
0 Add a 4 corners polygon primitive as box body*
4,1,4,$2,$3,$4,$5,$6,$7,$8,$9,$2,$3,0*
0 Add four circle primitives for the rounded corners*
1,1,$1+$1,$2,$3*
1,1,$1+$1,$4,$5*
1,1,$1+$1,$6,$7*
1,1,$1+$1,$8,$9*
0 Add four rect primitives between the rounded corners*
20,1,$1+$1,$2,$3,$4,$5,0*
20,1,$1+$1,$4,$5,$6,$7,0*
20,1,$1+$1,$6,$7,$8,$9,0*
20,1,$1+$1,$8,$9,$2,$3,0*%
G04 Aperture macros list end*
%TA.AperFunction,ComponentPad*%
%ADD10R,1.700000X1.700000*%
%TD*%
%TA.AperFunction,ComponentPad*%
%ADD11O,1.700000X1.700000*%
%TD*%
%TA.AperFunction,SMDPad,CuDef*%
%ADD12RoundRect,0.237500X0.237500X-0.300000X0.237500X0.300000X-0.237500X0.300000X-0.237500X-0.300000X0*%
%TD*%
%TA.AperFunction,SMDPad,CuDef*%
%ADD13RoundRect,0.237500X-0.237500X0.300000X-0.237500X-0.300000X0.237500X-0.300000X0.237500X0.300000X0*%
%TD*%
%TA.AperFunction,SMDPad,CuDef*%
%ADD14R,0.700000X0.300000*%
%TD*%
%TA.AperFunction,SMDPad,CuDef*%
%ADD15R,1.000000X0.300000*%
%TD*%
%TA.AperFunction,SMDPad,CuDef*%
%ADD16RoundRect,0.237500X0.237500X-0.250000X0.237500X0.250000X-0.237500X0.250000X-0.237500X-0.250000X0*%
%TD*%
%TA.AperFunction,ViaPad*%
%ADD17C,0.600000*%
%TD*%
%TA.AperFunction,Conductor*%
%ADD18C,0.200000*%
%TD*%
%TA.AperFunction,Conductor*%
%ADD19C,0.400000*%
%TD*%
%TA.AperFunction,Conductor*%
%ADD20C,0.500000*%
%TD*%
%TA.AperFunction,Conductor*%
%ADD21C,0.300000*%
%TD*%
G04 APERTURE END LIST*
D10*
%TO.P,J6,1,Pin_1*%
%TO.N,Net-(J1-SCS)*%
X87750000Y-85250000D03*
D11*
%TO.P,J6,2,Pin_2*%
%TO.N,Net-(J6-Pin_2)*%
X87750000Y-87790000D03*
%TD*%
D12*
%TO.P,C1,1*%
%TO.N,Net-(J1-DISP)*%
X80507703Y-92677656D03*
%TO.P,C1,2*%
%TO.N,VSS*%
X80507703Y-90952656D03*
%TD*%
D13*
%TO.P,C3,1*%
%TO.N,VDD*%
X80489636Y-94852205D03*
%TO.P,C3,2*%
%TO.N,VSS*%
X80489636Y-96577205D03*
%TD*%
D10*
%TO.P,J3,1,Pin_1*%
%TO.N,VSS*%
X89500000Y-96000000D03*
D11*
%TO.P,J3,2,Pin_2*%
%TO.N,EXTMODE_IN*%
X92040000Y-96000000D03*
%TO.P,J3,3,Pin_3*%
%TO.N,VDD*%
X94580000Y-96000000D03*
%TD*%
D13*
%TO.P,C2,1*%
%TO.N,Net-(J1-VDDA)*%
X84000000Y-94124301D03*
%TO.P,C2,2*%
%TO.N,VSS*%
X84000000Y-95849301D03*
%TD*%
D14*
%TO.P,J2,1,SCLK*%
%TO.N,Net-(J1-SCLK)*%
X76150000Y-91125000D03*
%TO.P,J2,2,SI*%
%TO.N,Net-(J1-SI)*%
X76150000Y-91625000D03*
%TO.P,J2,3,SCS*%
%TO.N,Net-(J1-SCS)*%
X76150000Y-92125000D03*
%TO.P,J2,4,EXTCOMIN*%
%TO.N,EXTCOMIN_IN*%
X76150000Y-92625000D03*
%TO.P,J2,5,DISP*%
%TO.N,Net-(J1-DISP)*%
X76150000Y-93125000D03*
%TO.P,J2,6,VDDA*%
%TO.N,Net-(J1-VDDA)*%
X76150000Y-93625000D03*
%TO.P,J2,7,VDD*%
%TO.N,VDD*%
X76150000Y-94125000D03*
%TO.P,J2,8,EXTMODE*%
%TO.N,EXTMODE_IN*%
X76150000Y-94625000D03*
%TO.P,J2,9,VSS*%
%TO.N,VSS*%
X76150000Y-95125000D03*
%TO.P,J2,10,VSSA*%
X76150000Y-95625000D03*
D15*
%TO.P,J2,11*%
%TO.N,N/C*%
X73500000Y-90335000D03*
%TO.P,J2,12*%
X73500000Y-96415000D03*
%TD*%
D10*
%TO.P,J1,1,SCLK*%
%TO.N,Net-(J1-SCLK)*%
X114789506Y-83245958D03*
D11*
%TO.P,J1,2,SI*%
%TO.N,Net-(J1-SI)*%
X114789506Y-85785958D03*
%TO.P,J1,3,SCS*%
%TO.N,Net-(J1-SCS)*%
X114789506Y-88325958D03*
%TO.P,J1,4,EXTCOMIN*%
%TO.N,EXTCOMIN_IN*%
X114789506Y-90865958D03*
%TO.P,J1,5,DISP*%
%TO.N,Net-(J1-DISP)*%
X114789506Y-93405958D03*
%TO.P,J1,6,VDDA*%
%TO.N,Net-(J1-VDDA)*%
X114789506Y-95945958D03*
%TO.P,J1,7,VDD*%
%TO.N,VDD*%
X114789506Y-98485958D03*
%TO.P,J1,8,EXTMODE*%
%TO.N,EXTMODE_IN*%
X114789506Y-101025958D03*
%TO.P,J1,9,GND*%
%TO.N,VSS*%
X114789506Y-103565958D03*
%TD*%
D16*
%TO.P,R1,1*%
%TO.N,Net-(J6-Pin_2)*%
X91000000Y-88412500D03*
%TO.P,R1,2*%
%TO.N,VSS*%
X91000000Y-86587500D03*
%TD*%
D10*
%TO.P,J4,1,Pin_1*%
%TO.N,VSS*%
X98750000Y-88500000D03*
D11*
%TO.P,J4,2,Pin_2*%
%TO.N,EXTCOMIN_IN*%
X101290000Y-88500000D03*
%TD*%
D10*
%TO.P,J5,1,Pin_1*%
%TO.N,VDD*%
X99500000Y-98525000D03*
D11*
%TO.P,J5,2,Pin_2*%
%TO.N,Net-(J1-VDDA)*%
X99500000Y-95985000D03*
%TD*%
D17*
%TO.N,VSS*%
X85250000Y-96000000D03*
X82000000Y-91000000D03*
X74519628Y-95136544D03*
X92250000Y-86500000D03*
X81577205Y-96577205D03*
%TO.N,EXTMODE_IN*%
X77250000Y-95000000D03*
%TO.N,EXTCOMIN_IN*%
X84500000Y-91750000D03*
X78250000Y-92250000D03*
%TD*%
D18*
%TO.N,Net-(J1-DISP)*%
X114508548Y-93125000D02*
X114789506Y-93405958D01*
X76150000Y-93125000D02*
X114508548Y-93125000D01*
%TO.N,VSS*%
X81955665Y-90955665D02*
X82000000Y-91000000D01*
D19*
X77250000Y-96250000D02*
X77250000Y-101250000D01*
D18*
X91000000Y-86587500D02*
X92162500Y-86587500D01*
X92162500Y-86587500D02*
X92250000Y-86500000D01*
D20*
X80500000Y-90955665D02*
X81955665Y-90955665D01*
D21*
X76150000Y-95125000D02*
X74531172Y-95125000D01*
D19*
X76625000Y-95625000D02*
X77250000Y-96250000D01*
D18*
X74531172Y-95125000D02*
X74519628Y-95136544D01*
D21*
X80489636Y-96577205D02*
X81577205Y-96577205D01*
D19*
X79565958Y-103565958D02*
X114789506Y-103565958D01*
D20*
X85250000Y-96000000D02*
X85099301Y-95849301D01*
X85099301Y-95849301D02*
X84000000Y-95849301D01*
D19*
X77250000Y-101250000D02*
X79565958Y-103565958D01*
X76150000Y-95625000D02*
X76625000Y-95625000D01*
D21*
%TO.N,Net-(J1-VDDA)*%
X76150000Y-93625000D02*
X77875000Y-93625000D01*
D19*
X96750000Y-93750000D02*
X98985000Y-95985000D01*
X114789506Y-95945958D02*
X114750464Y-95985000D01*
X78000000Y-93750000D02*
X96750000Y-93750000D01*
X114750464Y-95985000D02*
X99500000Y-95985000D01*
D21*
X77875000Y-93625000D02*
X78000000Y-93750000D01*
D19*
X98985000Y-95985000D02*
X99500000Y-95985000D01*
D21*
%TO.N,VDD*%
X76150000Y-94125000D02*
X77375000Y-94125000D01*
D19*
X94750000Y-96000000D02*
X97250000Y-98500000D01*
X99475000Y-98500000D02*
X99500000Y-98525000D01*
D18*
X94580000Y-96000000D02*
X94750000Y-96000000D01*
D19*
X82500000Y-97500000D02*
X82500000Y-95375000D01*
X99539042Y-98485958D02*
X114789506Y-98485958D01*
X97250000Y-98500000D02*
X83500000Y-98500000D01*
X83500000Y-98500000D02*
X82500000Y-97500000D01*
X81625000Y-94500000D02*
X77750000Y-94500000D01*
X97250000Y-98500000D02*
X99475000Y-98500000D01*
D21*
X77375000Y-94125000D02*
X77750000Y-94500000D01*
D19*
X82500000Y-95375000D02*
X81625000Y-94500000D01*
X99500000Y-98525000D02*
X99539042Y-98485958D01*
D18*
%TO.N,EXTMODE_IN*%
X76150000Y-94625000D02*
X76875000Y-94625000D01*
X76875000Y-94625000D02*
X77250000Y-95000000D01*
%TO.N,Net-(J1-SI)*%
X76875000Y-91625000D02*
X84500000Y-84000000D01*
X113003548Y-84000000D02*
X114789506Y-85785958D01*
X84500000Y-84000000D02*
X113003548Y-84000000D01*
X76150000Y-91625000D02*
X76875000Y-91625000D01*
%TO.N,EXTCOMIN_IN*%
X85500000Y-91750000D02*
X84500000Y-91750000D01*
X86000000Y-91250000D02*
X85500000Y-91750000D01*
X100250000Y-91250000D02*
X86000000Y-91250000D01*
X101290000Y-88500000D02*
X101290000Y-90210000D01*
X76150000Y-92625000D02*
X77875000Y-92625000D01*
X101290000Y-88500000D02*
X112423548Y-88500000D01*
X112423548Y-88500000D02*
X114789506Y-90865958D01*
X101290000Y-90210000D02*
X100250000Y-91250000D01*
X77875000Y-92625000D02*
X78250000Y-92250000D01*
%TO.N,Net-(J1-SCS)*%
X111713548Y-85250000D02*
X114789506Y-88325958D01*
X87750000Y-85250000D02*
X111713548Y-85250000D01*
X84000000Y-85250000D02*
X87750000Y-85250000D01*
X76150000Y-92125000D02*
X77125000Y-92125000D01*
X77125000Y-92125000D02*
X84000000Y-85250000D01*
%TO.N,Net-(J1-SCLK)*%
X76625000Y-91125000D02*
X84500000Y-83250000D01*
X114785464Y-83250000D02*
X114789506Y-83245958D01*
X84500000Y-83250000D02*
X114785464Y-83250000D01*
X76150000Y-91125000D02*
X76625000Y-91125000D01*
%TO.N,Net-(J6-Pin_2)*%
X90662500Y-88750000D02*
X91000000Y-88412500D01*
X88750000Y-88750000D02*
X90662500Y-88750000D01*
X87790000Y-87790000D02*
X88750000Y-88750000D01*
X87750000Y-87790000D02*
X87790000Y-87790000D01*
%TD*%
M02*
