M48
; DRILL file {KiCad 8.0.3} date 2024-06-23T18:27:29+0200
; FORMAT={-:-/ absolute / metric / decimal}
; #@! TF.CreationDate,2024-06-23T18:27:29+02:00
; #@! TF.GenerationSoftware,Kicad,Pcbnew,8.0.3
; #@! TF.FileFunction,Plated,1,2,PTH
FMAT,2
METRIC
; #@! TA.AperFunction,Plated,PTH,ViaDrill
T1C0.300
; #@! TA.AperFunction,Plated,PTH,ComponentDrill
T2C1.000
%
G90
G05
T1
X74.52Y-95.137
X77.25Y-95.0
X78.25Y-92.25
X81.577Y-96.577
X82.0Y-91.0
X84.5Y-91.75
X85.25Y-96.0
X92.25Y-86.5
T2
X87.75Y-85.25
X87.75Y-87.79
X89.5Y-96.0
X92.04Y-96.0
X94.58Y-96.0
X98.75Y-88.5
X99.5Y-95.985
X99.5Y-98.525
X101.29Y-88.5
X114.79Y-83.246
X114.79Y-85.786
X114.79Y-88.326
X114.79Y-90.866
X114.79Y-93.406
X114.79Y-95.946
X114.79Y-98.486
X114.79Y-101.026
X114.79Y-103.566
M30
